<svg width="20" height="20" viewBox="0 0 20 20" fill="none" xmlns="http://www.w3.org/2000/svg">
<mask id="path-1-inside-1" fill="white">
<path d="M18.2671 19.1646L17.0501 5.61135C17.0169 5.24122 16.7066 4.95772 16.3351 4.95772H13.8254V3.8258C13.8254 1.71625 12.1092 0 9.99975 0C7.8904 0 6.17443 1.71625 6.17443 3.8258V4.95772H3.66298C3.29142 4.95772 2.9812 5.24122 2.94799 5.61135L1.7262 19.2179C1.7082 19.4187 1.7754 19.6177 1.91141 19.7665C2.04742 19.9152 2.23971 19.9999 2.44118 19.9999H17.557C17.5575 19.9999 17.5583 19.9999 17.5589 19.9999C17.9554 19.9999 18.2767 19.6785 18.2767 19.282C18.2767 19.2421 18.2734 19.2028 18.2671 19.1646ZM7.61014 3.8258C7.61014 2.50791 8.68214 1.43572 9.99984 1.43572C11.3176 1.43572 12.3897 2.50791 12.3897 3.8258V4.95772H7.61014V3.8258ZM3.22643 18.5643L4.31929 6.39343H6.17443V7.67715C6.17443 8.0736 6.49574 8.39501 6.89229 8.39501C7.28883 8.39501 7.61014 8.0736 7.61014 7.67715V6.39343H12.3897V7.67715C12.3897 8.0736 12.7111 8.39501 13.1076 8.39501C13.5041 8.39501 13.8255 8.0736 13.8255 7.67715V6.39343H15.6789L16.7717 18.5643H3.22643V18.5643Z"/>
</mask>
<path d="M18.2671 19.1646L17.0501 5.61135C17.0169 5.24122 16.7066 4.95772 16.3351 4.95772H13.8254V3.8258C13.8254 1.71625 12.1092 0 9.99975 0C7.8904 0 6.17443 1.71625 6.17443 3.8258V4.95772H3.66298C3.29142 4.95772 2.9812 5.24122 2.94799 5.61135L1.7262 19.2179C1.7082 19.4187 1.7754 19.6177 1.91141 19.7665C2.04742 19.9152 2.23971 19.9999 2.44118 19.9999H17.557C17.5575 19.9999 17.5583 19.9999 17.5589 19.9999C17.9554 19.9999 18.2767 19.6785 18.2767 19.282C18.2767 19.2421 18.2734 19.2028 18.2671 19.1646ZM7.61014 3.8258C7.61014 2.50791 8.68214 1.43572 9.99984 1.43572C11.3176 1.43572 12.3897 2.50791 12.3897 3.8258V4.95772H7.61014V3.8258ZM3.22643 18.5643L4.31929 6.39343H6.17443V7.67715C6.17443 8.0736 6.49574 8.39501 6.89229 8.39501C7.28883 8.39501 7.61014 8.0736 7.61014 7.67715V6.39343H12.3897V7.67715C12.3897 8.0736 12.7111 8.39501 13.1076 8.39501C13.5041 8.39501 13.8255 8.0736 13.8255 7.67715V6.39343H15.6789L16.7717 18.5643H3.22643V18.5643Z" fill="#5B5656"/>
<path d="M18.2671 19.1646L14.2831 19.5223L14.2964 19.6706L14.3207 19.8174L18.2671 19.1646ZM17.0501 5.61135L13.0661 5.96885L13.0661 5.96909L17.0501 5.61135ZM13.8254 4.95772H9.82536V8.95772H13.8254V4.95772ZM6.17443 4.95772V8.95772H10.1744V4.95772H6.17443ZM2.94799 5.61135L6.93196 5.96909L6.93198 5.96885L2.94799 5.61135ZM1.7262 19.2179L-2.25777 18.8602L-2.25784 18.8609L1.7262 19.2179ZM18.2767 19.282L22.2768 19.282L22.2767 19.2725L18.2767 19.282ZM12.3897 4.95772V8.95772H16.3897V4.95772H12.3897ZM7.61014 4.95772H3.61014V8.95772H7.61014V4.95772ZM4.31929 6.39343V2.39343H0.662374L0.335321 6.0357L4.31929 6.39343ZM6.17443 6.39343H10.1744V2.39343H6.17443V6.39343ZM7.61014 6.39343V2.39343H3.61014V6.39343H7.61014ZM12.3897 6.39343H16.3897V2.39343H12.3897V6.39343ZM13.8255 6.39343V2.39343H9.82545V6.39343H13.8255ZM15.6789 6.39343L19.6628 6.0357L19.3358 2.39343H15.6789V6.39343ZM16.7717 18.5643V22.5643H21.147L20.7557 18.2065L16.7717 18.5643ZM22.2511 18.8069L21.034 5.25361L13.0661 5.96909L14.2831 19.5223L22.2511 18.8069ZM21.0341 5.25385C20.8157 2.82071 18.7765 0.957718 16.3351 0.957718V8.95772C14.6367 8.95772 13.218 7.66173 13.0661 5.96885L21.0341 5.25385ZM16.3351 0.957718H13.8254V8.95772H16.3351V0.957718ZM17.8254 4.95772V3.8258H9.82536V4.95772H17.8254ZM17.8254 3.8258C17.8254 -0.492689 14.3185 -4 9.99975 -4V4C9.98023 4 9.95307 3.99525 9.92689 3.98416C9.90342 3.97421 9.88683 3.96191 9.8751 3.95017C9.86336 3.93844 9.85108 3.92187 9.84116 3.89846C9.83009 3.87232 9.82536 3.84523 9.82536 3.8258H17.8254ZM9.99975 -4C5.68073 -4 2.17443 -0.492363 2.17443 3.8258H10.1744C10.1744 3.84517 10.1697 3.87221 10.1587 3.89832C10.1487 3.92172 10.1365 3.93829 10.1247 3.95005C10.1129 3.96181 10.0963 3.97415 10.0728 3.98412C10.0465 3.99524 10.0193 4 9.99975 4V-4ZM2.17443 3.8258V4.95772H10.1744V3.8258H2.17443ZM6.17443 0.957718H3.66298V8.95772H6.17443V0.957718ZM3.66298 0.957718C1.22151 0.957718 -0.817666 2.82071 -1.036 5.25385L6.93198 5.96885C6.78008 7.66173 5.36132 8.95772 3.66298 8.95772V0.957718ZM-1.03598 5.25361L-2.25777 18.8602L5.71017 19.5757L6.93196 5.96909L-1.03598 5.25361ZM-2.25784 18.8609C-2.37603 20.1799 -1.93453 21.4881 -1.04052 22.4657L4.86333 17.0672C5.48532 17.7474 5.79244 18.6576 5.71023 19.5749L-2.25784 18.8609ZM-1.04052 22.4657C-0.14667 23.4433 1.11687 23.9999 2.44118 23.9999V15.9999C3.36254 15.9999 4.2415 16.3871 4.86333 17.0672L-1.04052 22.4657ZM2.44118 23.9999H17.557V15.9999H2.44118V23.9999ZM17.557 23.9999C17.557 23.9999 17.557 23.9999 17.557 23.9999C17.557 23.9999 17.557 23.9999 17.557 23.9999C17.557 23.9999 17.557 23.9999 17.557 23.9999C17.557 23.9999 17.557 23.9999 17.557 23.9999C17.557 23.9999 17.557 23.9999 17.557 23.9999C17.557 23.9999 17.557 23.9999 17.557 23.9999C17.557 23.9999 17.557 23.9999 17.557 23.9999C17.557 23.9999 17.557 23.9999 17.557 23.9999C17.557 23.9999 17.557 23.9999 17.557 23.9999C17.557 23.9999 17.557 23.9999 17.557 23.9999C17.557 23.9999 17.557 23.9999 17.557 23.9999C17.557 23.9999 17.557 23.9999 17.557 23.9999C17.557 23.9999 17.557 23.9999 17.557 23.9999C17.557 23.9999 17.557 23.9999 17.557 23.9999C17.557 23.9999 17.557 23.9999 17.557 23.9999C17.557 23.9999 17.557 23.9999 17.557 23.9999C17.557 23.9999 17.557 23.9999 17.557 23.9999C17.557 23.9999 17.557 23.9999 17.557 23.9999C17.557 23.9999 17.557 23.9999 17.557 23.9999C17.557 23.9999 17.557 23.9999 17.557 23.9999C17.557 23.9999 17.557 23.9999 17.557 23.9999C17.557 23.9999 17.557 23.9999 17.557 23.9999C17.5571 23.9999 17.5571 23.9999 17.5571 23.9999C17.5571 23.9999 17.5571 23.9999 17.5571 23.9999C17.5571 23.9999 17.5571 23.9999 17.5571 23.9999C17.5571 23.9999 17.5571 23.9999 17.5571 23.9999C17.5571 23.9999 17.5571 23.9999 17.5571 23.9999C17.5571 23.9999 17.5571 23.9999 17.5571 23.9999C17.5571 23.9999 17.5571 23.9999 17.5571 23.9999C17.5571 23.9999 17.5571 23.9999 17.5571 23.9999C17.5571 23.9999 17.5571 23.9999 17.5571 23.9999C17.5571 23.9999 17.5571 23.9999 17.5571 23.9999C17.5571 23.9999 17.5571 23.9999 17.5571 23.9999C17.5571 23.9999 17.5571 23.9999 17.5571 23.9999C17.5571 23.9999 17.5571 23.9999 17.5571 23.9999C17.5571 23.9999 17.5571 23.9999 17.5571 23.9999C17.5571 23.9999 17.5571 23.9999 17.5571 23.9999C17.5571 23.9999 17.5571 23.9999 17.5571 23.9999C17.5571 23.9999 17.5571 23.9999 17.5571 23.9999C17.5571 23.9999 17.5571 23.9999 17.5571 23.9999C17.5571 23.9999 17.5571 23.9999 17.5571 23.9999C17.5571 23.9999 17.5571 23.9999 17.5571 23.9999C17.5571 23.9999 17.5571 23.9999 17.5571 23.9999C17.5571 23.9999 17.5571 23.9999 17.5571 23.9999C17.5571 23.9999 17.5571 23.9999 17.5571 23.9999C17.5571 23.9999 17.5571 23.9999 17.5571 23.9999C17.5571 23.9999 17.5571 23.9999 17.5571 23.9999C17.5571 23.9999 17.5571 23.9999 17.5571 23.9999C17.5571 23.9999 17.5571 23.9999 17.5571 23.9999C17.5571 23.9999 17.5571 23.9999 17.5571 23.9999C17.5571 23.9999 17.5572 23.9999 17.5572 23.9999C17.5572 23.9999 17.5572 23.9999 17.5572 23.9999C17.5572 23.9999 17.5572 23.9999 17.5572 23.9999C17.5572 23.9999 17.5572 23.9999 17.5572 23.9999C17.5572 23.9999 17.5572 23.9999 17.5572 23.9999C17.5572 23.9999 17.5572 23.9999 17.5572 23.9999C17.5572 23.9999 17.5572 23.9999 17.5572 23.9999C17.5572 23.9999 17.5572 23.9999 17.5572 23.9999C17.5572 23.9999 17.5572 23.9999 17.5572 23.9999C17.5572 23.9999 17.5572 23.9999 17.5572 23.9999C17.5572 23.9999 17.5572 23.9999 17.5572 23.9999C17.5572 23.9999 17.5572 23.9999 17.5572 23.9999C17.5572 23.9999 17.5572 23.9999 17.5572 23.9999C17.5572 23.9999 17.5572 23.9999 17.5572 23.9999C17.5572 23.9999 17.5572 23.9999 17.5572 23.9999C17.5572 23.9999 17.5572 23.9999 17.5572 23.9999C17.5572 23.9999 17.5572 23.9999 17.5572 23.9999C17.5572 23.9999 17.5572 23.9999 17.5572 23.9999C17.5572 23.9999 17.5572 23.9999 17.5572 23.9999C17.5572 23.9999 17.5572 23.9999 17.5572 23.9999C17.5572 23.9999 17.5572 23.9999 17.5572 23.9999C17.5572 23.9999 17.5572 23.9999 17.5572 23.9999C17.5572 23.9999 17.5572 23.9999 17.5572 23.9999C17.5572 23.9999 17.5572 23.9999 17.5572 23.9999C17.5572 23.9999 17.5572 23.9999 17.5572 23.9999C17.5572 23.9999 17.5572 23.9999 17.5572 23.9999C17.5572 23.9999 17.5572 23.9999 17.5572 23.9999C17.5572 23.9999 17.5572 23.9999 17.5572 23.9999C17.5573 23.9999 17.5573 23.9999 17.5573 23.9999C17.5573 23.9999 17.5573 23.9999 17.5573 23.9999C17.5573 23.9999 17.5573 23.9999 17.5573 23.9999C17.5573 23.9999 17.5573 23.9999 17.5573 23.9999C17.5573 23.9999 17.5573 23.9999 17.5573 23.9999C17.5573 23.9999 17.5573 23.9999 17.5573 23.9999C17.5573 23.9999 17.5573 23.9999 17.5573 23.9999C17.5573 23.9999 17.5573 23.9999 17.5573 23.9999C17.5573 23.9999 17.5573 23.9999 17.5573 23.9999C17.5573 23.9999 17.5573 23.9999 17.5573 23.9999C17.5573 23.9999 17.5573 23.9999 17.5573 23.9999C17.5573 23.9999 17.5573 23.9999 17.5573 23.9999C17.5573 23.9999 17.5573 23.9999 17.5573 23.9999C17.5573 23.9999 17.5573 23.9999 17.5573 23.9999C17.5573 23.9999 17.5573 23.9999 17.5573 23.9999C17.5573 23.9999 17.5573 23.9999 17.5573 23.9999C17.5573 23.9999 17.5573 23.9999 17.5573 23.9999C17.5573 23.9999 17.5573 23.9999 17.5573 23.9999C17.5573 23.9999 17.5573 23.9999 17.5573 23.9999C17.5573 23.9999 17.5573 23.9999 17.5573 23.9999C17.5573 23.9999 17.5573 23.9999 17.5573 23.9999C17.5573 23.9999 17.5573 23.9999 17.5573 23.9999C17.5573 23.9999 17.5573 23.9999 17.5573 23.9999C17.5573 23.9999 17.5573 23.9999 17.5573 23.9999C17.5573 23.9999 17.5573 23.9999 17.5573 23.9999C17.5573 23.9999 17.5573 23.9999 17.5573 23.9999C17.5573 23.9999 17.5573 23.9999 17.5573 23.9999C17.5574 23.9999 17.5574 23.9999 17.5574 23.9999C17.5574 23.9999 17.5574 23.9999 17.5574 23.9999C17.5574 23.9999 17.5574 23.9999 17.5574 23.9999C17.5574 23.9999 17.5574 23.9999 17.5574 23.9999C17.5574 23.9999 17.5574 23.9999 17.5574 23.9999C17.5574 23.9999 17.5574 23.9999 17.5574 23.9999C17.5574 23.9999 17.5574 23.9999 17.5574 23.9999C17.5574 23.9999 17.5574 23.9999 17.5574 23.9999C17.5574 23.9999 17.5574 23.9999 17.5574 23.9999C17.5574 23.9999 17.5574 23.9999 17.5574 23.9999C17.5574 23.9999 17.5574 23.9999 17.5574 23.9999C17.5574 23.9999 17.5574 23.9999 17.5574 23.9999C17.5574 23.9999 17.5574 23.9999 17.5574 23.9999C17.5574 23.9999 17.5574 23.9999 17.5574 23.9999C17.5574 23.9999 17.5574 23.9999 17.5574 23.9999C17.5574 23.9999 17.5574 23.9999 17.5574 23.9999C17.5574 23.9999 17.5574 23.9999 17.5574 23.9999C17.5574 23.9999 17.5574 23.9999 17.5574 23.9999C17.5574 23.9999 17.5574 23.9999 17.5574 23.9999C17.5574 23.9999 17.5574 23.9999 17.5574 23.9999C17.5574 23.9999 17.5574 23.9999 17.5574 23.9999C17.5574 23.9999 17.5574 23.9999 17.5574 23.9999C17.5574 23.9999 17.5574 23.9999 17.5574 23.9999C17.5574 23.9999 17.5574 23.9999 17.5574 23.9999C17.5574 23.9999 17.5574 23.9999 17.5574 23.9999C17.5574 23.9999 17.5574 23.9999 17.5574 23.9999C17.5574 23.9999 17.5574 23.9999 17.5575 23.9999C17.5575 23.9999 17.5575 23.9999 17.5575 23.9999C17.5575 23.9999 17.5575 23.9999 17.5575 23.9999C17.5575 23.9999 17.5575 23.9999 17.5575 23.9999C17.5575 23.9999 17.5575 23.9999 17.5575 23.9999C17.5575 23.9999 17.5575 23.9999 17.5575 23.9999C17.5575 23.9999 17.5575 23.9999 17.5575 23.9999C17.5575 23.9999 17.5575 23.9999 17.5575 23.9999C17.5575 23.9999 17.5575 23.9999 17.5575 23.9999C17.5575 23.9999 17.5575 23.9999 17.5575 23.9999C17.5575 23.9999 17.5575 23.9999 17.5575 23.9999C17.5575 23.9999 17.5575 23.9999 17.5575 23.9999C17.5575 23.9999 17.5575 23.9999 17.5575 23.9999C17.5575 23.9999 17.5575 23.9999 17.5575 23.9999C17.5575 23.9999 17.5575 23.9999 17.5575 23.9999C17.5575 23.9999 17.5575 23.9999 17.5575 23.9999C17.5575 23.9999 17.5575 23.9999 17.5575 23.9999C17.5575 23.9999 17.5575 23.9999 17.5575 23.9999C17.5575 23.9999 17.5575 23.9999 17.5575 23.9999C17.5575 23.9999 17.5575 23.9999 17.5575 23.9999C17.5575 23.9999 17.5575 23.9999 17.5575 23.9999C17.5575 23.9999 17.5575 23.9999 17.5575 23.9999C17.5575 23.9999 17.5575 23.9999 17.5575 23.9999C17.5575 23.9999 17.5575 23.9999 17.5575 23.9999C17.5575 23.9999 17.5575 23.9999 17.5575 23.9999C17.5575 23.9999 17.5575 23.9999 17.5575 23.9999C17.5575 23.9999 17.5575 23.9999 17.5575 23.9999C17.5576 23.9999 17.5576 23.9999 17.5576 23.9999C17.5576 23.9999 17.5576 23.9999 17.5576 23.9999C17.5576 23.9999 17.5576 23.9999 17.5576 23.9999C17.5576 23.9999 17.5576 23.9999 17.5576 23.9999C17.5576 23.9999 17.5576 23.9999 17.5576 23.9999C17.5576 23.9999 17.5576 23.9999 17.5576 23.9999C17.5576 23.9999 17.5576 23.9999 17.5576 23.9999C17.5576 23.9999 17.5576 23.9999 17.5576 23.9999C17.5576 23.9999 17.5576 23.9999 17.5576 23.9999C17.5576 23.9999 17.5576 23.9999 17.5576 23.9999C17.5576 23.9999 17.5576 23.9999 17.5576 23.9999C17.5576 23.9999 17.5576 23.9999 17.5576 23.9999C17.5576 23.9999 17.5576 23.9999 17.5576 23.9999C17.5576 23.9999 17.5576 23.9999 17.5576 23.9999C17.5576 23.9999 17.5576 23.9999 17.5576 23.9999C17.5576 23.9999 17.5576 23.9999 17.5576 23.9999C17.5576 23.9999 17.5576 23.9999 17.5576 23.9999C17.5576 23.9999 17.5576 23.9999 17.5576 23.9999C17.5576 23.9999 17.5576 23.9999 17.5576 23.9999C17.5576 23.9999 17.5576 23.9999 17.5576 23.9999C17.5576 23.9999 17.5576 23.9999 17.5576 23.9999C17.5576 23.9999 17.5576 23.9999 17.5576 23.9999C17.5576 23.9999 17.5576 23.9999 17.5576 23.9999C17.5576 23.9999 17.5576 23.9999 17.5576 23.9999C17.5576 23.9999 17.5576 23.9999 17.5576 23.9999C17.5576 23.9999 17.5576 23.9999 17.5577 23.9999C17.5577 23.9999 17.5577 23.9999 17.5577 23.9999C17.5577 23.9999 17.5577 23.9999 17.5577 23.9999C17.5577 23.9999 17.5577 23.9999 17.5577 23.9999C17.5577 23.9999 17.5577 23.9999 17.5577 23.9999C17.5577 23.9999 17.5577 23.9999 17.5577 23.9999C17.5577 23.9999 17.5577 23.9999 17.5577 23.9999C17.5577 23.9999 17.5577 23.9999 17.5577 23.9999C17.5577 23.9999 17.5577 23.9999 17.5577 23.9999C17.5577 23.9999 17.5577 23.9999 17.5577 23.9999C17.5577 23.9999 17.5577 23.9999 17.5577 23.9999C17.5577 23.9999 17.5577 23.9999 17.5577 23.9999C17.5577 23.9999 17.5577 23.9999 17.5577 23.9999C17.5577 23.9999 17.5577 23.9999 17.5577 23.9999C17.5577 23.9999 17.5577 23.9999 17.5577 23.9999C17.5577 23.9999 17.5577 23.9999 17.5577 23.9999C17.5577 23.9999 17.5577 23.9999 17.5577 23.9999C17.5577 23.9999 17.5577 23.9999 17.5577 23.9999C17.5577 23.9999 17.5577 23.9999 17.5577 23.9999C17.5577 23.9999 17.5577 23.9999 17.5577 23.9999C17.5577 23.9999 17.5577 23.9999 17.5577 23.9999C17.5577 23.9999 17.5577 23.9999 17.5577 23.9999C17.5577 23.9999 17.5577 23.9999 17.5577 23.9999C17.5577 23.9999 17.5577 23.9999 17.5577 23.9999C17.5577 23.9999 17.5577 23.9999 17.5577 23.9999C17.5577 23.9999 17.5577 23.9999 17.5577 23.9999C17.5577 23.9999 17.5578 23.9999 17.5578 23.9999C17.5578 23.9999 17.5578 23.9999 17.5578 23.9999C17.5578 23.9999 17.5578 23.9999 17.5578 23.9999C17.5578 23.9999 17.5578 23.9999 17.5578 23.9999C17.5578 23.9999 17.5578 23.9999 17.5578 23.9999C17.5578 23.9999 17.5578 23.9999 17.5578 23.9999C17.5578 23.9999 17.5578 23.9999 17.5578 23.9999C17.5578 23.9999 17.5578 23.9999 17.5578 23.9999C17.5578 23.9999 17.5578 23.9999 17.5578 23.9999C17.5578 23.9999 17.5578 23.9999 17.5578 23.9999C17.5578 23.9999 17.5578 23.9999 17.5578 23.9999C17.5578 23.9999 17.5578 23.9999 17.5578 23.9999C17.5578 23.9999 17.5578 23.9999 17.5578 23.9999C17.5578 23.9999 17.5578 23.9999 17.5578 23.9999C17.5578 23.9999 17.5578 23.9999 17.5578 23.9999C17.5578 23.9999 17.5578 23.9999 17.5578 23.9999C17.5578 23.9999 17.5578 23.9999 17.5578 23.9999C17.5578 23.9999 17.5578 23.9999 17.5578 23.9999C17.5578 23.9999 17.5578 23.9999 17.5578 23.9999C17.5578 23.9999 17.5578 23.9999 17.5578 23.9999C17.5578 23.9999 17.5578 23.9999 17.5578 23.9999C17.5578 23.9999 17.5578 23.9999 17.5578 23.9999C17.5578 23.9999 17.5578 23.9999 17.5578 23.9999C17.5578 23.9999 17.5578 23.9999 17.5578 23.9999C17.5578 23.9999 17.5578 23.9999 17.5578 23.9999C17.5578 23.9999 17.5578 23.9999 17.5578 23.9999C17.5579 23.9999 17.5579 23.9999 17.5579 23.9999C17.5579 23.9999 17.5579 23.9999 17.5579 23.9999C17.5579 23.9999 17.5579 23.9999 17.5579 23.9999C17.5579 23.9999 17.5579 23.9999 17.5579 23.9999C17.5579 23.9999 17.5579 23.9999 17.5579 23.9999C17.5579 23.9999 17.5579 23.9999 17.5579 23.9999C17.5579 23.9999 17.5579 23.9999 17.5579 23.9999C17.5579 23.9999 17.5579 23.9999 17.5579 23.9999C17.5579 23.9999 17.5579 23.9999 17.5579 23.9999C17.5579 23.9999 17.5579 23.9999 17.5579 23.9999C17.5579 23.9999 17.5579 23.9999 17.5579 23.9999C17.5579 23.9999 17.5579 23.9999 17.5579 23.9999C17.5579 23.9999 17.5579 23.9999 17.5579 23.9999C17.5579 23.9999 17.5579 23.9999 17.5579 23.9999C17.5579 23.9999 17.5579 23.9999 17.5579 23.9999C17.5579 23.9999 17.5579 23.9999 17.5579 23.9999C17.5579 23.9999 17.5579 23.9999 17.5579 23.9999C17.5579 23.9999 17.5579 23.9999 17.5579 23.9999C17.5579 23.9999 17.5579 23.9999 17.5579 23.9999C17.5579 23.9999 17.5579 23.9999 17.5579 23.9999C17.5579 23.9999 17.5579 23.9999 17.5579 23.9999C17.5579 23.9999 17.5579 23.9999 17.5579 23.9999C17.5579 23.9999 17.5579 23.9999 17.5579 23.9999C17.5579 23.9999 17.5579 23.9999 17.5579 23.9999C17.5579 23.9999 17.5579 23.9999 17.5579 23.9999C17.5579 23.9999 17.558 23.9999 17.558 23.9999C17.558 23.9999 17.558 23.9999 17.558 23.9999C17.558 23.9999 17.558 23.9999 17.558 23.9999C17.558 23.9999 17.558 23.9999 17.558 23.9999C17.558 23.9999 17.558 23.9999 17.558 23.9999C17.558 23.9999 17.558 23.9999 17.558 23.9999C17.558 23.9999 17.558 23.9999 17.558 23.9999C17.558 23.9999 17.558 23.9999 17.558 23.9999C17.558 23.9999 17.558 23.9999 17.558 23.9999C17.558 23.9999 17.558 23.9999 17.558 23.9999C17.558 23.9999 17.558 23.9999 17.558 23.9999C17.558 23.9999 17.558 23.9999 17.558 23.9999C17.558 23.9999 17.558 23.9999 17.558 23.9999C17.558 23.9999 17.558 23.9999 17.558 23.9999C17.558 23.9999 17.558 23.9999 17.558 23.9999C17.558 23.9999 17.558 23.9999 17.558 23.9999C17.558 23.9999 17.558 23.9999 17.558 23.9999C17.558 23.9999 17.558 23.9999 17.558 23.9999C17.558 23.9999 17.558 23.9999 17.558 23.9999C17.558 23.9999 17.558 23.9999 17.558 23.9999C17.558 23.9999 17.558 23.9999 17.558 23.9999C17.558 23.9999 17.558 23.9999 17.558 23.9999C17.558 23.9999 17.558 23.9999 17.558 23.9999C17.558 23.9999 17.558 23.9999 17.558 23.9999C17.558 23.9999 17.558 23.9999 17.558 23.9999C17.558 23.9999 17.558 23.9999 17.558 23.9999C17.5581 23.9999 17.5581 23.9999 17.5581 23.9999C17.5581 23.9999 17.5581 23.9999 17.5581 23.9999C17.5581 23.9999 17.5581 23.9999 17.5581 23.9999C17.5581 23.9999 17.5581 23.9999 17.5581 23.9999C17.5581 23.9999 17.5581 23.9999 17.5581 23.9999C17.5581 23.9999 17.5581 23.9999 17.5581 23.9999C17.5581 23.9999 17.5581 23.9999 17.5581 23.9999C17.5581 23.9999 17.5581 23.9999 17.5581 23.9999C17.5581 23.9999 17.5581 23.9999 17.5581 23.9999C17.5581 23.9999 17.5581 23.9999 17.5581 23.9999C17.5581 23.9999 17.5581 23.9999 17.5581 23.9999C17.5581 23.9999 17.5581 23.9999 17.5581 23.9999C17.5581 23.9999 17.5581 23.9999 17.5581 23.9999C17.5581 23.9999 17.5581 23.9999 17.5581 23.9999C17.5581 23.9999 17.5581 23.9999 17.5581 23.9999C17.5581 23.9999 17.5581 23.9999 17.5581 23.9999C17.5581 23.9999 17.5581 23.9999 17.5581 23.9999C17.5581 23.9999 17.5581 23.9999 17.5581 23.9999C17.5581 23.9999 17.5581 23.9999 17.5581 23.9999C17.5581 23.9999 17.5581 23.9999 17.5581 23.9999C17.5581 23.9999 17.5581 23.9999 17.5581 23.9999C17.5581 23.9999 17.5581 23.9999 17.5581 23.9999C17.5581 23.9999 17.5581 23.9999 17.5581 23.9999C17.5581 23.9999 17.5581 23.9999 17.5581 23.9999C17.5581 23.9999 17.5581 23.9999 17.5581 23.9999C17.5581 23.9999 17.5582 23.9999 17.5582 23.9999C17.5582 23.9999 17.5582 23.9999 17.5582 23.9999C17.5582 23.9999 17.5582 23.9999 17.5582 23.9999C17.5582 23.9999 17.5582 23.9999 17.5582 23.9999C17.5582 23.9999 17.5582 23.9999 17.5582 23.9999C17.5582 23.9999 17.5582 23.9999 17.5582 23.9999C17.5582 23.9999 17.5582 23.9999 17.5582 23.9999C17.5582 23.9999 17.5582 23.9999 17.5582 23.9999C17.5582 23.9999 17.5582 23.9999 17.5582 23.9999C17.5582 23.9999 17.5582 23.9999 17.5582 23.9999C17.5582 23.9999 17.5582 23.9999 17.5582 23.9999C17.5582 23.9999 17.5582 23.9999 17.5582 23.9999C17.5582 23.9999 17.5582 23.9999 17.5582 23.9999C17.5582 23.9999 17.5582 23.9999 17.5582 23.9999C17.5582 23.9999 17.5582 23.9999 17.5582 23.9999C17.5582 23.9999 17.5582 23.9999 17.5582 23.9999C17.5582 23.9999 17.5582 23.9999 17.5582 23.9999C17.5582 23.9999 17.5582 23.9999 17.5582 23.9999C17.5582 23.9999 17.5582 23.9999 17.5582 23.9999C17.5582 23.9999 17.5582 23.9999 17.5582 23.9999C17.5582 23.9999 17.5582 23.9999 17.5582 23.9999C17.5582 23.9999 17.5582 23.9999 17.5582 23.9999C17.5582 23.9999 17.5582 23.9999 17.5582 23.9999C17.5582 23.9999 17.5582 23.9999 17.5582 23.9999C17.5582 23.9999 17.5582 23.9999 17.5582 23.9999C17.5582 23.9999 17.5582 23.9999 17.5582 23.9999C17.5582 23.9999 17.5583 23.9999 17.5583 23.9999C17.5583 23.9999 17.5583 23.9999 17.5583 23.9999C17.5583 23.9999 17.5583 23.9999 17.5583 23.9999C17.5583 23.9999 17.5583 23.9999 17.5583 23.9999C17.5583 23.9999 17.5583 23.9999 17.5583 23.9999C17.5583 23.9999 17.5583 23.9999 17.5583 23.9999C17.5583 23.9999 17.5583 23.9999 17.5583 23.9999C17.5583 23.9999 17.5583 23.9999 17.5583 23.9999C17.5583 23.9999 17.5583 23.9999 17.5583 23.9999C17.5583 23.9999 17.5583 23.9999 17.5583 23.9999C17.5583 23.9999 17.5583 23.9999 17.5583 23.9999C17.5583 23.9999 17.5583 23.9999 17.5583 23.9999C17.5583 23.9999 17.5583 23.9999 17.5583 23.9999C17.5583 23.9999 17.5583 23.9999 17.5583 23.9999C17.5583 23.9999 17.5583 23.9999 17.5583 23.9999C17.5583 23.9999 17.5583 23.9999 17.5583 23.9999C17.5583 23.9999 17.5583 23.9999 17.5583 23.9999C17.5583 23.9999 17.5583 23.9999 17.5583 23.9999C17.5583 23.9999 17.5583 23.9999 17.5583 23.9999C17.5583 23.9999 17.5583 23.9999 17.5583 23.9999C17.5583 23.9999 17.5583 23.9999 17.5583 23.9999C17.5583 23.9999 17.5583 23.9999 17.5583 23.9999C17.5583 23.9999 17.5583 23.9999 17.5583 23.9999C17.5583 23.9999 17.5583 23.9999 17.5583 23.9999C17.5583 23.9999 17.5583 23.9999 17.5583 23.9999C17.5583 23.9999 17.5583 23.9999 17.5583 23.9999C17.5583 23.9999 17.5584 23.9999 17.5584 23.9999C17.5584 23.9999 17.5584 23.9999 17.5584 23.9999C17.5584 23.9999 17.5584 23.9999 17.5584 23.9999C17.5584 23.9999 17.5584 23.9999 17.5584 23.9999C17.5584 23.9999 17.5584 23.9999 17.5584 23.9999C17.5584 23.9999 17.5584 23.9999 17.5584 23.9999C17.5584 23.9999 17.5584 23.9999 17.5584 23.9999C17.5584 23.9999 17.5584 23.9999 17.5584 23.9999C17.5584 23.9999 17.5584 23.9999 17.5584 23.9999C17.5584 23.9999 17.5584 23.9999 17.5584 23.9999C17.5584 23.9999 17.5584 23.9999 17.5584 23.9999C17.5584 23.9999 17.5584 23.9999 17.5584 23.9999C17.5584 23.9999 17.5584 23.9999 17.5584 23.9999C17.5584 23.9999 17.5584 23.9999 17.5584 23.9999C17.5584 23.9999 17.5584 23.9999 17.5584 23.9999C17.5584 23.9999 17.5584 23.9999 17.5584 23.9999C17.5584 23.9999 17.5584 23.9999 17.5584 23.9999C17.5584 23.9999 17.5584 23.9999 17.5584 23.9999C17.5584 23.9999 17.5584 23.9999 17.5584 23.9999C17.5584 23.9999 17.5584 23.9999 17.5584 23.9999C17.5584 23.9999 17.5584 23.9999 17.5584 23.9999C17.5584 23.9999 17.5584 23.9999 17.5584 23.9999C17.5584 23.9999 17.5584 23.9999 17.5584 23.9999C17.5584 23.9999 17.5584 23.9999 17.5584 23.9999C17.5584 23.9999 17.5584 23.9999 17.5584 23.9999C17.5584 23.9999 17.5584 23.9999 17.5584 23.9999C17.5584 23.9999 17.5585 23.9999 17.5585 23.9999C17.5585 23.9999 17.5585 23.9999 17.5585 23.9999C17.5585 23.9999 17.5585 23.9999 17.5585 23.9999C17.5585 23.9999 17.5585 23.9999 17.5585 23.9999C17.5585 23.9999 17.5585 23.9999 17.5585 23.9999C17.5585 23.9999 17.5585 23.9999 17.5585 23.9999C17.5585 23.9999 17.5585 23.9999 17.5585 23.9999C17.5585 23.9999 17.5585 23.9999 17.5585 23.9999C17.5585 23.9999 17.5585 23.9999 17.5585 23.9999C17.5585 23.9999 17.5585 23.9999 17.5585 23.9999C17.5585 23.9999 17.5585 23.9999 17.5585 23.9999C17.5585 23.9999 17.5585 23.9999 17.5585 23.9999C17.5585 23.9999 17.5585 23.9999 17.5585 23.9999C17.5585 23.9999 17.5585 23.9999 17.5585 23.9999C17.5585 23.9999 17.5585 23.9999 17.5585 23.9999C17.5585 23.9999 17.5585 23.9999 17.5585 23.9999C17.5585 23.9999 17.5585 23.9999 17.5585 23.9999C17.5585 23.9999 17.5585 23.9999 17.5585 23.9999C17.5585 23.9999 17.5585 23.9999 17.5585 23.9999C17.5585 23.9999 17.5585 23.9999 17.5585 23.9999C17.5585 23.9999 17.5585 23.9999 17.5585 23.9999C17.5585 23.9999 17.5585 23.9999 17.5585 23.9999C17.5585 23.9999 17.5585 23.9999 17.5585 23.9999C17.5585 23.9999 17.5585 23.9999 17.5585 23.9999C17.5585 23.9999 17.5585 23.9999 17.5585 23.9999C17.5585 23.9999 17.5585 23.9999 17.5585 23.9999C17.5585 23.9999 17.5585 23.9999 17.5585 23.9999C17.5585 23.9999 17.5586 23.9999 17.5586 23.9999C17.5586 23.9999 17.5586 23.9999 17.5586 23.9999C17.5586 23.9999 17.5586 23.9999 17.5586 23.9999C17.5586 23.9999 17.5586 23.9999 17.5586 23.9999C17.5586 23.9999 17.5586 23.9999 17.5586 23.9999C17.5586 23.9999 17.5586 23.9999 17.5586 23.9999C17.5586 23.9999 17.5586 23.9999 17.5586 23.9999C17.5586 23.9999 17.5586 23.9999 17.5586 23.9999C17.5586 23.9999 17.5586 23.9999 17.5586 23.9999C17.5586 23.9999 17.5586 23.9999 17.5586 23.9999C17.5586 23.9999 17.5586 23.9999 17.5586 23.9999C17.5586 23.9999 17.5586 23.9999 17.5586 23.9999C17.5586 23.9999 17.5586 23.9999 17.5586 23.9999C17.5586 23.9999 17.5586 23.9999 17.5586 23.9999C17.5586 23.9999 17.5586 23.9999 17.5586 23.9999C17.5586 23.9999 17.5586 23.9999 17.5586 23.9999C17.5586 23.9999 17.5586 23.9999 17.5586 23.9999C17.5586 23.9999 17.5586 23.9999 17.5586 23.9999C17.5586 23.9999 17.5586 23.9999 17.5586 23.9999C17.5586 23.9999 17.5586 23.9999 17.5586 23.9999C17.5586 23.9999 17.5586 23.9999 17.5586 23.9999C17.5586 23.9999 17.5586 23.9999 17.5586 23.9999C17.5586 23.9999 17.5586 23.9999 17.5586 23.9999C17.5586 23.9999 17.5586 23.9999 17.5586 23.9999C17.5586 23.9999 17.5586 23.9999 17.5586 23.9999C17.5586 23.9999 17.5586 23.9999 17.5586 23.9999C17.5586 23.9999 17.5586 23.9999 17.5586 23.9999C17.5586 23.9999 17.5587 23.9999 17.5587 23.9999C17.5587 23.9999 17.5587 23.9999 17.5587 23.9999C17.5587 23.9999 17.5587 23.9999 17.5587 23.9999C17.5587 23.9999 17.5587 23.9999 17.5587 23.9999C17.5587 23.9999 17.5587 23.9999 17.5587 23.9999C17.5587 23.9999 17.5587 23.9999 17.5587 23.9999C17.5587 23.9999 17.5587 23.9999 17.5587 23.9999C17.5587 23.9999 17.5587 23.9999 17.5587 23.9999C17.5587 23.9999 17.5587 23.9999 17.5587 23.9999C17.5587 23.9999 17.5587 23.9999 17.5587 23.9999C17.5587 23.9999 17.5587 23.9999 17.5587 23.9999C17.5587 23.9999 17.5587 23.9999 17.5587 23.9999C17.5587 23.9999 17.5587 23.9999 17.5587 23.9999C17.5587 23.9999 17.5587 23.9999 17.5587 23.9999C17.5587 23.9999 17.5587 23.9999 17.5587 23.9999C17.5587 23.9999 17.5587 23.9999 17.5587 23.9999C17.5587 23.9999 17.5587 23.9999 17.5587 23.9999C17.5587 23.9999 17.5587 23.9999 17.5587 23.9999C17.5587 23.9999 17.5587 23.9999 17.5587 23.9999C17.5587 23.9999 17.5587 23.9999 17.5587 23.9999C17.5587 23.9999 17.5587 23.9999 17.5587 23.9999C17.5587 23.9999 17.5587 23.9999 17.5587 23.9999C17.5587 23.9999 17.5587 23.9999 17.5587 23.9999C17.5587 23.9999 17.5587 23.9999 17.5587 23.9999C17.5587 23.9999 17.5587 23.9999 17.5587 23.9999C17.5587 23.9999 17.5587 23.9999 17.5587 23.9999C17.5587 23.9999 17.5587 23.9999 17.5587 23.9999C17.5587 23.9999 17.5587 23.9999 17.5587 23.9999C17.5587 23.9999 17.5588 23.9999 17.5588 23.9999C17.5588 23.9999 17.5588 23.9999 17.5588 23.9999C17.5588 23.9999 17.5588 23.9999 17.5588 23.9999C17.5588 23.9999 17.5588 23.9999 17.5588 23.9999C17.5588 23.9999 17.5588 23.9999 17.5588 23.9999C17.5588 23.9999 17.5588 23.9999 17.5588 23.9999C17.5588 23.9999 17.5588 23.9999 17.5588 23.9999C17.5588 23.9999 17.5588 23.9999 17.5588 23.9999C17.5588 23.9999 17.5588 23.9999 17.5588 23.9999C17.5588 23.9999 17.5588 23.9999 17.5588 23.9999C17.5588 23.9999 17.5588 23.9999 17.5588 23.9999C17.5588 23.9999 17.5588 23.9999 17.5588 23.9999C17.5588 23.9999 17.5588 23.9999 17.5588 23.9999C17.5588 23.9999 17.5588 23.9999 17.5588 23.9999C17.5588 23.9999 17.5588 23.9999 17.5588 23.9999C17.5588 23.9999 17.5588 23.9999 17.5588 23.9999C17.5588 23.9999 17.5588 23.9999 17.5588 23.9999C17.5588 23.9999 17.5588 23.9999 17.5588 23.9999C17.5588 23.9999 17.5588 23.9999 17.5588 23.9999C17.5588 23.9999 17.5588 23.9999 17.5588 23.9999C17.5588 23.9999 17.5588 23.9999 17.5588 23.9999C17.5588 23.9999 17.5588 23.9999 17.5588 23.9999C17.5588 23.9999 17.5588 23.9999 17.5588 23.9999C17.5588 23.9999 17.5588 23.9999 17.5588 23.9999C17.5588 23.9999 17.5588 23.9999 17.5588 23.9999C17.5588 23.9999 17.5588 23.9999 17.5588 23.9999C17.5588 23.9999 17.5588 23.9999 17.5588 23.9999C17.5588 23.9999 17.5588 23.9999 17.5588 23.9999C17.5588 23.9999 17.5588 23.9999 17.5588 23.9999C17.5588 23.9999 17.5589 23.9999 17.5589 23.9999C17.5589 23.9999 17.5589 23.9999 17.5589 23.9999C17.5589 23.9999 17.5589 23.9999 17.5589 23.9999C17.5589 23.9999 17.5589 23.9999 17.5589 23.9999C17.5589 23.9999 17.5589 23.9999 17.5589 23.9999C17.5589 23.9999 17.5589 23.9999 17.5589 23.9999C17.5589 23.9999 17.5589 23.9999 17.5589 23.9999C17.5589 23.9999 17.5589 23.9999 17.5589 23.9999C17.5589 23.9999 17.5589 23.9999 17.5589 23.9999C17.5589 23.9999 17.5589 23.9999 17.5589 23.9999C17.5589 23.9999 17.5589 23.9999 17.5589 23.9999C17.5589 23.9999 17.5589 23.9999 17.5589 23.9999V15.9999C17.5589 15.9999 17.5589 15.9999 17.5589 15.9999C17.5589 15.9999 17.5589 15.9999 17.5589 15.9999C17.5589 15.9999 17.5589 15.9999 17.5589 15.9999C17.5589 15.9999 17.5589 15.9999 17.5589 15.9999C17.5589 15.9999 17.5589 15.9999 17.5589 15.9999C17.5589 15.9999 17.5589 15.9999 17.5589 15.9999C17.5589 15.9999 17.5589 15.9999 17.5589 15.9999C17.5589 15.9999 17.5589 15.9999 17.5589 15.9999C17.5589 15.9999 17.5589 15.9999 17.5589 15.9999C17.5589 15.9999 17.5589 15.9999 17.5589 15.9999C17.5589 15.9999 17.5589 15.9999 17.5589 15.9999C17.5589 15.9999 17.5588 15.9999 17.5588 15.9999C17.5588 15.9999 17.5588 15.9999 17.5588 15.9999C17.5588 15.9999 17.5588 15.9999 17.5588 15.9999C17.5588 15.9999 17.5588 15.9999 17.5588 15.9999C17.5588 15.9999 17.5588 15.9999 17.5588 15.9999C17.5588 15.9999 17.5588 15.9999 17.5588 15.9999C17.5588 15.9999 17.5588 15.9999 17.5588 15.9999C17.5588 15.9999 17.5588 15.9999 17.5588 15.9999C17.5588 15.9999 17.5588 15.9999 17.5588 15.9999C17.5588 15.9999 17.5588 15.9999 17.5588 15.9999C17.5588 15.9999 17.5588 15.9999 17.5588 15.9999C17.5588 15.9999 17.5588 15.9999 17.5588 15.9999C17.5588 15.9999 17.5588 15.9999 17.5588 15.9999C17.5588 15.9999 17.5588 15.9999 17.5588 15.9999C17.5588 15.9999 17.5588 15.9999 17.5588 15.9999C17.5588 15.9999 17.5588 15.9999 17.5588 15.9999C17.5588 15.9999 17.5588 15.9999 17.5588 15.9999C17.5588 15.9999 17.5588 15.9999 17.5588 15.9999C17.5588 15.9999 17.5588 15.9999 17.5588 15.9999C17.5588 15.9999 17.5588 15.9999 17.5588 15.9999C17.5588 15.9999 17.5588 15.9999 17.5588 15.9999C17.5588 15.9999 17.5588 15.9999 17.5588 15.9999C17.5588 15.9999 17.5588 15.9999 17.5588 15.9999C17.5588 15.9999 17.5588 15.9999 17.5588 15.9999C17.5588 15.9999 17.5588 15.9999 17.5588 15.9999C17.5588 15.9999 17.5588 15.9999 17.5588 15.9999C17.5588 15.9999 17.5588 15.9999 17.5588 15.9999C17.5588 15.9999 17.5588 15.9999 17.5588 15.9999C17.5588 15.9999 17.5588 15.9999 17.5588 15.9999C17.5588 15.9999 17.5587 15.9999 17.5587 15.9999C17.5587 15.9999 17.5587 15.9999 17.5587 15.9999C17.5587 15.9999 17.5587 15.9999 17.5587 15.9999C17.5587 15.9999 17.5587 15.9999 17.5587 15.9999C17.5587 15.9999 17.5587 15.9999 17.5587 15.9999C17.5587 15.9999 17.5587 15.9999 17.5587 15.9999C17.5587 15.9999 17.5587 15.9999 17.5587 15.9999C17.5587 15.9999 17.5587 15.9999 17.5587 15.9999C17.5587 15.9999 17.5587 15.9999 17.5587 15.9999C17.5587 15.9999 17.5587 15.9999 17.5587 15.9999C17.5587 15.9999 17.5587 15.9999 17.5587 15.9999C17.5587 15.9999 17.5587 15.9999 17.5587 15.9999C17.5587 15.9999 17.5587 15.9999 17.5587 15.9999C17.5587 15.9999 17.5587 15.9999 17.5587 15.9999C17.5587 15.9999 17.5587 15.9999 17.5587 15.9999C17.5587 15.9999 17.5587 15.9999 17.5587 15.9999C17.5587 15.9999 17.5587 15.9999 17.5587 15.9999C17.5587 15.9999 17.5587 15.9999 17.5587 15.9999C17.5587 15.9999 17.5587 15.9999 17.5587 15.9999C17.5587 15.9999 17.5587 15.9999 17.5587 15.9999C17.5587 15.9999 17.5587 15.9999 17.5587 15.9999C17.5587 15.9999 17.5587 15.9999 17.5587 15.9999C17.5587 15.9999 17.5587 15.9999 17.5587 15.9999C17.5587 15.9999 17.5587 15.9999 17.5587 15.9999C17.5587 15.9999 17.5587 15.9999 17.5587 15.9999C17.5587 15.9999 17.5587 15.9999 17.5587 15.9999C17.5587 15.9999 17.5587 15.9999 17.5587 15.9999C17.5587 15.9999 17.5587 15.9999 17.5587 15.9999C17.5587 15.9999 17.5586 15.9999 17.5586 15.9999C17.5586 15.9999 17.5586 15.9999 17.5586 15.9999C17.5586 15.9999 17.5586 15.9999 17.5586 15.9999C17.5586 15.9999 17.5586 15.9999 17.5586 15.9999C17.5586 15.9999 17.5586 15.9999 17.5586 15.9999C17.5586 15.9999 17.5586 15.9999 17.5586 15.9999C17.5586 15.9999 17.5586 15.9999 17.5586 15.9999C17.5586 15.9999 17.5586 15.9999 17.5586 15.9999C17.5586 15.9999 17.5586 15.9999 17.5586 15.9999C17.5586 15.9999 17.5586 15.9999 17.5586 15.9999C17.5586 15.9999 17.5586 15.9999 17.5586 15.9999C17.5586 15.9999 17.5586 15.9999 17.5586 15.9999C17.5586 15.9999 17.5586 15.9999 17.5586 15.9999C17.5586 15.9999 17.5586 15.9999 17.5586 15.9999C17.5586 15.9999 17.5586 15.9999 17.5586 15.9999C17.5586 15.9999 17.5586 15.9999 17.5586 15.9999C17.5586 15.9999 17.5586 15.9999 17.5586 15.9999C17.5586 15.9999 17.5586 15.9999 17.5586 15.9999C17.5586 15.9999 17.5586 15.9999 17.5586 15.9999C17.5586 15.9999 17.5586 15.9999 17.5586 15.9999C17.5586 15.9999 17.5586 15.9999 17.5586 15.9999C17.5586 15.9999 17.5586 15.9999 17.5586 15.9999C17.5586 15.9999 17.5586 15.9999 17.5586 15.9999C17.5586 15.9999 17.5586 15.9999 17.5586 15.9999C17.5586 15.9999 17.5586 15.9999 17.5586 15.9999C17.5586 15.9999 17.5586 15.9999 17.5586 15.9999C17.5586 15.9999 17.5586 15.9999 17.5586 15.9999C17.5586 15.9999 17.5585 15.9999 17.5585 15.9999C17.5585 15.9999 17.5585 15.9999 17.5585 15.9999C17.5585 15.9999 17.5585 15.9999 17.5585 15.9999C17.5585 15.9999 17.5585 15.9999 17.5585 15.9999C17.5585 15.9999 17.5585 15.9999 17.5585 15.9999C17.5585 15.9999 17.5585 15.9999 17.5585 15.9999C17.5585 15.9999 17.5585 15.9999 17.5585 15.9999C17.5585 15.9999 17.5585 15.9999 17.5585 15.9999C17.5585 15.9999 17.5585 15.9999 17.5585 15.9999C17.5585 15.9999 17.5585 15.9999 17.5585 15.9999C17.5585 15.9999 17.5585 15.9999 17.5585 15.9999C17.5585 15.9999 17.5585 15.9999 17.5585 15.9999C17.5585 15.9999 17.5585 15.9999 17.5585 15.9999C17.5585 15.9999 17.5585 15.9999 17.5585 15.9999C17.5585 15.9999 17.5585 15.9999 17.5585 15.9999C17.5585 15.9999 17.5585 15.9999 17.5585 15.9999C17.5585 15.9999 17.5585 15.9999 17.5585 15.9999C17.5585 15.9999 17.5585 15.9999 17.5585 15.9999C17.5585 15.9999 17.5585 15.9999 17.5585 15.9999C17.5585 15.9999 17.5585 15.9999 17.5585 15.9999C17.5585 15.9999 17.5585 15.9999 17.5585 15.9999C17.5585 15.9999 17.5585 15.9999 17.5585 15.9999C17.5585 15.9999 17.5585 15.9999 17.5585 15.9999C17.5585 15.9999 17.5585 15.9999 17.5585 15.9999C17.5585 15.9999 17.5585 15.9999 17.5585 15.9999C17.5585 15.9999 17.5585 15.9999 17.5585 15.9999C17.5585 15.9999 17.5585 15.9999 17.5585 15.9999C17.5585 15.9999 17.5584 15.9999 17.5584 15.9999C17.5584 15.9999 17.5584 15.9999 17.5584 15.9999C17.5584 15.9999 17.5584 15.9999 17.5584 15.9999C17.5584 15.9999 17.5584 15.9999 17.5584 15.9999C17.5584 15.9999 17.5584 15.9999 17.5584 15.9999C17.5584 15.9999 17.5584 15.9999 17.5584 15.9999C17.5584 15.9999 17.5584 15.9999 17.5584 15.9999C17.5584 15.9999 17.5584 15.9999 17.5584 15.9999C17.5584 15.9999 17.5584 15.9999 17.5584 15.9999C17.5584 15.9999 17.5584 15.9999 17.5584 15.9999C17.5584 15.9999 17.5584 15.9999 17.5584 15.9999C17.5584 15.9999 17.5584 15.9999 17.5584 15.9999C17.5584 15.9999 17.5584 15.9999 17.5584 15.9999C17.5584 15.9999 17.5584 15.9999 17.5584 15.9999C17.5584 15.9999 17.5584 15.9999 17.5584 15.9999C17.5584 15.9999 17.5584 15.9999 17.5584 15.9999C17.5584 15.9999 17.5584 15.9999 17.5584 15.9999C17.5584 15.9999 17.5584 15.9999 17.5584 15.9999C17.5584 15.9999 17.5584 15.9999 17.5584 15.9999C17.5584 15.9999 17.5584 15.9999 17.5584 15.9999C17.5584 15.9999 17.5584 15.9999 17.5584 15.9999C17.5584 15.9999 17.5584 15.9999 17.5584 15.9999C17.5584 15.9999 17.5584 15.9999 17.5584 15.9999C17.5584 15.9999 17.5584 15.9999 17.5584 15.9999C17.5584 15.9999 17.5584 15.9999 17.5584 15.9999C17.5584 15.9999 17.5584 15.9999 17.5584 15.9999C17.5584 15.9999 17.5583 15.9999 17.5583 15.9999C17.5583 15.9999 17.5583 15.9999 17.5583 15.9999C17.5583 15.9999 17.5583 15.9999 17.5583 15.9999C17.5583 15.9999 17.5583 15.9999 17.5583 15.9999C17.5583 15.9999 17.5583 15.9999 17.5583 15.9999C17.5583 15.9999 17.5583 15.9999 17.5583 15.9999C17.5583 15.9999 17.5583 15.9999 17.5583 15.9999C17.5583 15.9999 17.5583 15.9999 17.5583 15.9999C17.5583 15.9999 17.5583 15.9999 17.5583 15.9999C17.5583 15.9999 17.5583 15.9999 17.5583 15.9999C17.5583 15.9999 17.5583 15.9999 17.5583 15.9999C17.5583 15.9999 17.5583 15.9999 17.5583 15.9999C17.5583 15.9999 17.5583 15.9999 17.5583 15.9999C17.5583 15.9999 17.5583 15.9999 17.5583 15.9999C17.5583 15.9999 17.5583 15.9999 17.5583 15.9999C17.5583 15.9999 17.5583 15.9999 17.5583 15.9999C17.5583 15.9999 17.5583 15.9999 17.5583 15.9999C17.5583 15.9999 17.5583 15.9999 17.5583 15.9999C17.5583 15.9999 17.5583 15.9999 17.5583 15.9999C17.5583 15.9999 17.5583 15.9999 17.5583 15.9999C17.5583 15.9999 17.5583 15.9999 17.5583 15.9999C17.5583 15.9999 17.5583 15.9999 17.5583 15.9999C17.5583 15.9999 17.5583 15.9999 17.5583 15.9999C17.5583 15.9999 17.5583 15.9999 17.5583 15.9999C17.5583 15.9999 17.5583 15.9999 17.5583 15.9999C17.5583 15.9999 17.5583 15.9999 17.5583 15.9999C17.5583 15.9999 17.5582 15.9999 17.5582 15.9999C17.5582 15.9999 17.5582 15.9999 17.5582 15.9999C17.5582 15.9999 17.5582 15.9999 17.5582 15.9999C17.5582 15.9999 17.5582 15.9999 17.5582 15.9999C17.5582 15.9999 17.5582 15.9999 17.5582 15.9999C17.5582 15.9999 17.5582 15.9999 17.5582 15.9999C17.5582 15.9999 17.5582 15.9999 17.5582 15.9999C17.5582 15.9999 17.5582 15.9999 17.5582 15.9999C17.5582 15.9999 17.5582 15.9999 17.5582 15.9999C17.5582 15.9999 17.5582 15.9999 17.5582 15.9999C17.5582 15.9999 17.5582 15.9999 17.5582 15.9999C17.5582 15.9999 17.5582 15.9999 17.5582 15.9999C17.5582 15.9999 17.5582 15.9999 17.5582 15.9999C17.5582 15.9999 17.5582 15.9999 17.5582 15.9999C17.5582 15.9999 17.5582 15.9999 17.5582 15.9999C17.5582 15.9999 17.5582 15.9999 17.5582 15.9999C17.5582 15.9999 17.5582 15.9999 17.5582 15.9999C17.5582 15.9999 17.5582 15.9999 17.5582 15.9999C17.5582 15.9999 17.5582 15.9999 17.5582 15.9999C17.5582 15.9999 17.5582 15.9999 17.5582 15.9999C17.5582 15.9999 17.5582 15.9999 17.5582 15.9999C17.5582 15.9999 17.5582 15.9999 17.5582 15.9999C17.5582 15.9999 17.5582 15.9999 17.5582 15.9999C17.5582 15.9999 17.5582 15.9999 17.5582 15.9999C17.5582 15.9999 17.5582 15.9999 17.5582 15.9999C17.5582 15.9999 17.5582 15.9999 17.5582 15.9999C17.5582 15.9999 17.5581 15.9999 17.5581 15.9999C17.5581 15.9999 17.5581 15.9999 17.5581 15.9999C17.5581 15.9999 17.5581 15.9999 17.5581 15.9999C17.5581 15.9999 17.5581 15.9999 17.5581 15.9999C17.5581 15.9999 17.5581 15.9999 17.5581 15.9999C17.5581 15.9999 17.5581 15.9999 17.5581 15.9999C17.5581 15.9999 17.5581 15.9999 17.5581 15.9999C17.5581 15.9999 17.5581 15.9999 17.5581 15.9999C17.5581 15.9999 17.5581 15.9999 17.5581 15.9999C17.5581 15.9999 17.5581 15.9999 17.5581 15.9999C17.5581 15.9999 17.5581 15.9999 17.5581 15.9999C17.5581 15.9999 17.5581 15.9999 17.5581 15.9999C17.5581 15.9999 17.5581 15.9999 17.5581 15.9999C17.5581 15.9999 17.5581 15.9999 17.5581 15.9999C17.5581 15.9999 17.5581 15.9999 17.5581 15.9999C17.5581 15.9999 17.5581 15.9999 17.5581 15.9999C17.5581 15.9999 17.5581 15.9999 17.5581 15.9999C17.5581 15.9999 17.5581 15.9999 17.5581 15.9999C17.5581 15.9999 17.5581 15.9999 17.5581 15.9999C17.5581 15.9999 17.5581 15.9999 17.5581 15.9999C17.5581 15.9999 17.5581 15.9999 17.5581 15.9999C17.5581 15.9999 17.5581 15.9999 17.5581 15.9999C17.5581 15.9999 17.5581 15.9999 17.5581 15.9999C17.5581 15.9999 17.5581 15.9999 17.5581 15.9999C17.5581 15.9999 17.5581 15.9999 17.5581 15.9999C17.5581 15.9999 17.5581 15.9999 17.558 15.9999C17.558 15.9999 17.558 15.9999 17.558 15.9999C17.558 15.9999 17.558 15.9999 17.558 15.9999C17.558 15.9999 17.558 15.9999 17.558 15.9999C17.558 15.9999 17.558 15.9999 17.558 15.9999C17.558 15.9999 17.558 15.9999 17.558 15.9999C17.558 15.9999 17.558 15.9999 17.558 15.9999C17.558 15.9999 17.558 15.9999 17.558 15.9999C17.558 15.9999 17.558 15.9999 17.558 15.9999C17.558 15.9999 17.558 15.9999 17.558 15.9999C17.558 15.9999 17.558 15.9999 17.558 15.9999C17.558 15.9999 17.558 15.9999 17.558 15.9999C17.558 15.9999 17.558 15.9999 17.558 15.9999C17.558 15.9999 17.558 15.9999 17.558 15.9999C17.558 15.9999 17.558 15.9999 17.558 15.9999C17.558 15.9999 17.558 15.9999 17.558 15.9999C17.558 15.9999 17.558 15.9999 17.558 15.9999C17.558 15.9999 17.558 15.9999 17.558 15.9999C17.558 15.9999 17.558 15.9999 17.558 15.9999C17.558 15.9999 17.558 15.9999 17.558 15.9999C17.558 15.9999 17.558 15.9999 17.558 15.9999C17.558 15.9999 17.558 15.9999 17.558 15.9999C17.558 15.9999 17.558 15.9999 17.558 15.9999C17.558 15.9999 17.558 15.9999 17.558 15.9999C17.558 15.9999 17.558 15.9999 17.558 15.9999C17.558 15.9999 17.558 15.9999 17.558 15.9999C17.558 15.9999 17.5579 15.9999 17.5579 15.9999C17.5579 15.9999 17.5579 15.9999 17.5579 15.9999C17.5579 15.9999 17.5579 15.9999 17.5579 15.9999C17.5579 15.9999 17.5579 15.9999 17.5579 15.9999C17.5579 15.9999 17.5579 15.9999 17.5579 15.9999C17.5579 15.9999 17.5579 15.9999 17.5579 15.9999C17.5579 15.9999 17.5579 15.9999 17.5579 15.9999C17.5579 15.9999 17.5579 15.9999 17.5579 15.9999C17.5579 15.9999 17.5579 15.9999 17.5579 15.9999C17.5579 15.9999 17.5579 15.9999 17.5579 15.9999C17.5579 15.9999 17.5579 15.9999 17.5579 15.9999C17.5579 15.9999 17.5579 15.9999 17.5579 15.9999C17.5579 15.9999 17.5579 15.9999 17.5579 15.9999C17.5579 15.9999 17.5579 15.9999 17.5579 15.9999C17.5579 15.9999 17.5579 15.9999 17.5579 15.9999C17.5579 15.9999 17.5579 15.9999 17.5579 15.9999C17.5579 15.9999 17.5579 15.9999 17.5579 15.9999C17.5579 15.9999 17.5579 15.9999 17.5579 15.9999C17.5579 15.9999 17.5579 15.9999 17.5579 15.9999C17.5579 15.9999 17.5579 15.9999 17.5579 15.9999C17.5579 15.9999 17.5579 15.9999 17.5579 15.9999C17.5579 15.9999 17.5579 15.9999 17.5579 15.9999C17.5579 15.9999 17.5579 15.9999 17.5579 15.9999C17.5579 15.9999 17.5579 15.9999 17.5579 15.9999C17.5579 15.9999 17.5579 15.9999 17.5579 15.9999C17.5579 15.9999 17.5579 15.9999 17.5578 15.9999C17.5578 15.9999 17.5578 15.9999 17.5578 15.9999C17.5578 15.9999 17.5578 15.9999 17.5578 15.9999C17.5578 15.9999 17.5578 15.9999 17.5578 15.9999C17.5578 15.9999 17.5578 15.9999 17.5578 15.9999C17.5578 15.9999 17.5578 15.9999 17.5578 15.9999C17.5578 15.9999 17.5578 15.9999 17.5578 15.9999C17.5578 15.9999 17.5578 15.9999 17.5578 15.9999C17.5578 15.9999 17.5578 15.9999 17.5578 15.9999C17.5578 15.9999 17.5578 15.9999 17.5578 15.9999C17.5578 15.9999 17.5578 15.9999 17.5578 15.9999C17.5578 15.9999 17.5578 15.9999 17.5578 15.9999C17.5578 15.9999 17.5578 15.9999 17.5578 15.9999C17.5578 15.9999 17.5578 15.9999 17.5578 15.9999C17.5578 15.9999 17.5578 15.9999 17.5578 15.9999C17.5578 15.9999 17.5578 15.9999 17.5578 15.9999C17.5578 15.9999 17.5578 15.9999 17.5578 15.9999C17.5578 15.9999 17.5578 15.9999 17.5578 15.9999C17.5578 15.9999 17.5578 15.9999 17.5578 15.9999C17.5578 15.9999 17.5578 15.9999 17.5578 15.9999C17.5578 15.9999 17.5578 15.9999 17.5578 15.9999C17.5578 15.9999 17.5578 15.9999 17.5578 15.9999C17.5578 15.9999 17.5578 15.9999 17.5578 15.9999C17.5578 15.9999 17.5578 15.9999 17.5578 15.9999C17.5578 15.9999 17.5578 15.9999 17.5578 15.9999C17.5578 15.9999 17.5578 15.9999 17.5578 15.9999C17.5578 15.9999 17.5577 15.9999 17.5577 15.9999C17.5577 15.9999 17.5577 15.9999 17.5577 15.9999C17.5577 15.9999 17.5577 15.9999 17.5577 15.9999C17.5577 15.9999 17.5577 15.9999 17.5577 15.9999C17.5577 15.9999 17.5577 15.9999 17.5577 15.9999C17.5577 15.9999 17.5577 15.9999 17.5577 15.9999C17.5577 15.9999 17.5577 15.9999 17.5577 15.9999C17.5577 15.9999 17.5577 15.9999 17.5577 15.9999C17.5577 15.9999 17.5577 15.9999 17.5577 15.9999C17.5577 15.9999 17.5577 15.9999 17.5577 15.9999C17.5577 15.9999 17.5577 15.9999 17.5577 15.9999C17.5577 15.9999 17.5577 15.9999 17.5577 15.9999C17.5577 15.9999 17.5577 15.9999 17.5577 15.9999C17.5577 15.9999 17.5577 15.9999 17.5577 15.9999C17.5577 15.9999 17.5577 15.9999 17.5577 15.9999C17.5577 15.9999 17.5577 15.9999 17.5577 15.9999C17.5577 15.9999 17.5577 15.9999 17.5577 15.9999C17.5577 15.9999 17.5577 15.9999 17.5577 15.9999C17.5577 15.9999 17.5577 15.9999 17.5577 15.9999C17.5577 15.9999 17.5577 15.9999 17.5577 15.9999C17.5577 15.9999 17.5577 15.9999 17.5577 15.9999C17.5577 15.9999 17.5577 15.9999 17.5577 15.9999C17.5577 15.9999 17.5577 15.9999 17.5577 15.9999C17.5577 15.9999 17.5577 15.9999 17.5577 15.9999C17.5577 15.9999 17.5577 15.9999 17.5577 15.9999C17.5577 15.9999 17.5577 15.9999 17.5577 15.9999C17.5576 15.9999 17.5576 15.9999 17.5576 15.9999C17.5576 15.9999 17.5576 15.9999 17.5576 15.9999C17.5576 15.9999 17.5576 15.9999 17.5576 15.9999C17.5576 15.9999 17.5576 15.9999 17.5576 15.9999C17.5576 15.9999 17.5576 15.9999 17.5576 15.9999C17.5576 15.9999 17.5576 15.9999 17.5576 15.9999C17.5576 15.9999 17.5576 15.9999 17.5576 15.9999C17.5576 15.9999 17.5576 15.9999 17.5576 15.9999C17.5576 15.9999 17.5576 15.9999 17.5576 15.9999C17.5576 15.9999 17.5576 15.9999 17.5576 15.9999C17.5576 15.9999 17.5576 15.9999 17.5576 15.9999C17.5576 15.9999 17.5576 15.9999 17.5576 15.9999C17.5576 15.9999 17.5576 15.9999 17.5576 15.9999C17.5576 15.9999 17.5576 15.9999 17.5576 15.9999C17.5576 15.9999 17.5576 15.9999 17.5576 15.9999C17.5576 15.9999 17.5576 15.9999 17.5576 15.9999C17.5576 15.9999 17.5576 15.9999 17.5576 15.9999C17.5576 15.9999 17.5576 15.9999 17.5576 15.9999C17.5576 15.9999 17.5576 15.9999 17.5576 15.9999C17.5576 15.9999 17.5576 15.9999 17.5576 15.9999C17.5576 15.9999 17.5576 15.9999 17.5576 15.9999C17.5576 15.9999 17.5576 15.9999 17.5576 15.9999C17.5576 15.9999 17.5576 15.9999 17.5576 15.9999C17.5576 15.9999 17.5576 15.9999 17.5576 15.9999C17.5576 15.9999 17.5576 15.9999 17.5576 15.9999C17.5576 15.9999 17.5576 15.9999 17.5575 15.9999C17.5575 15.9999 17.5575 15.9999 17.5575 15.9999C17.5575 15.9999 17.5575 15.9999 17.5575 15.9999C17.5575 15.9999 17.5575 15.9999 17.5575 15.9999C17.5575 15.9999 17.5575 15.9999 17.5575 15.9999C17.5575 15.9999 17.5575 15.9999 17.5575 15.9999C17.5575 15.9999 17.5575 15.9999 17.5575 15.9999C17.5575 15.9999 17.5575 15.9999 17.5575 15.9999C17.5575 15.9999 17.5575 15.9999 17.5575 15.9999C17.5575 15.9999 17.5575 15.9999 17.5575 15.9999C17.5575 15.9999 17.5575 15.9999 17.5575 15.9999C17.5575 15.9999 17.5575 15.9999 17.5575 15.9999C17.5575 15.9999 17.5575 15.9999 17.5575 15.9999C17.5575 15.9999 17.5575 15.9999 17.5575 15.9999C17.5575 15.9999 17.5575 15.9999 17.5575 15.9999C17.5575 15.9999 17.5575 15.9999 17.5575 15.9999C17.5575 15.9999 17.5575 15.9999 17.5575 15.9999C17.5575 15.9999 17.5575 15.9999 17.5575 15.9999C17.5575 15.9999 17.5575 15.9999 17.5575 15.9999C17.5575 15.9999 17.5575 15.9999 17.5575 15.9999C17.5575 15.9999 17.5575 15.9999 17.5575 15.9999C17.5575 15.9999 17.5575 15.9999 17.5575 15.9999C17.5575 15.9999 17.5575 15.9999 17.5575 15.9999C17.5575 15.9999 17.5575 15.9999 17.5575 15.9999C17.5575 15.9999 17.5575 15.9999 17.5575 15.9999C17.5575 15.9999 17.5575 15.9999 17.5575 15.9999C17.5575 15.9999 17.5575 15.9999 17.5575 15.9999C17.5574 15.9999 17.5574 15.9999 17.5574 15.9999C17.5574 15.9999 17.5574 15.9999 17.5574 15.9999C17.5574 15.9999 17.5574 15.9999 17.5574 15.9999C17.5574 15.9999 17.5574 15.9999 17.5574 15.9999C17.5574 15.9999 17.5574 15.9999 17.5574 15.9999C17.5574 15.9999 17.5574 15.9999 17.5574 15.9999C17.5574 15.9999 17.5574 15.9999 17.5574 15.9999C17.5574 15.9999 17.5574 15.9999 17.5574 15.9999C17.5574 15.9999 17.5574 15.9999 17.5574 15.9999C17.5574 15.9999 17.5574 15.9999 17.5574 15.9999C17.5574 15.9999 17.5574 15.9999 17.5574 15.9999C17.5574 15.9999 17.5574 15.9999 17.5574 15.9999C17.5574 15.9999 17.5574 15.9999 17.5574 15.9999C17.5574 15.9999 17.5574 15.9999 17.5574 15.9999C17.5574 15.9999 17.5574 15.9999 17.5574 15.9999C17.5574 15.9999 17.5574 15.9999 17.5574 15.9999C17.5574 15.9999 17.5574 15.9999 17.5574 15.9999C17.5574 15.9999 17.5574 15.9999 17.5574 15.9999C17.5574 15.9999 17.5574 15.9999 17.5574 15.9999C17.5574 15.9999 17.5574 15.9999 17.5574 15.9999C17.5574 15.9999 17.5574 15.9999 17.5574 15.9999C17.5574 15.9999 17.5574 15.9999 17.5574 15.9999C17.5574 15.9999 17.5574 15.9999 17.5574 15.9999C17.5574 15.9999 17.5574 15.9999 17.5574 15.9999C17.5574 15.9999 17.5574 15.9999 17.5574 15.9999C17.5574 15.9999 17.5574 15.9999 17.5574 15.9999C17.5574 15.9999 17.5574 15.9999 17.5573 15.9999C17.5573 15.9999 17.5573 15.9999 17.5573 15.9999C17.5573 15.9999 17.5573 15.9999 17.5573 15.9999C17.5573 15.9999 17.5573 15.9999 17.5573 15.9999C17.5573 15.9999 17.5573 15.9999 17.5573 15.9999C17.5573 15.9999 17.5573 15.9999 17.5573 15.9999C17.5573 15.9999 17.5573 15.9999 17.5573 15.9999C17.5573 15.9999 17.5573 15.9999 17.5573 15.9999C17.5573 15.9999 17.5573 15.9999 17.5573 15.9999C17.5573 15.9999 17.5573 15.9999 17.5573 15.9999C17.5573 15.9999 17.5573 15.9999 17.5573 15.9999C17.5573 15.9999 17.5573 15.9999 17.5573 15.9999C17.5573 15.9999 17.5573 15.9999 17.5573 15.9999C17.5573 15.9999 17.5573 15.9999 17.5573 15.9999C17.5573 15.9999 17.5573 15.9999 17.5573 15.9999C17.5573 15.9999 17.5573 15.9999 17.5573 15.9999C17.5573 15.9999 17.5573 15.9999 17.5573 15.9999C17.5573 15.9999 17.5573 15.9999 17.5573 15.9999C17.5573 15.9999 17.5573 15.9999 17.5573 15.9999C17.5573 15.9999 17.5573 15.9999 17.5573 15.9999C17.5573 15.9999 17.5573 15.9999 17.5573 15.9999C17.5573 15.9999 17.5573 15.9999 17.5573 15.9999C17.5573 15.9999 17.5573 15.9999 17.5573 15.9999C17.5573 15.9999 17.5573 15.9999 17.5573 15.9999C17.5573 15.9999 17.5573 15.9999 17.5573 15.9999C17.5573 15.9999 17.5573 15.9999 17.5573 15.9999C17.5573 15.9999 17.5573 15.9999 17.5573 15.9999C17.5573 15.9999 17.5573 15.9999 17.5572 15.9999C17.5572 15.9999 17.5572 15.9999 17.5572 15.9999C17.5572 15.9999 17.5572 15.9999 17.5572 15.9999C17.5572 15.9999 17.5572 15.9999 17.5572 15.9999C17.5572 15.9999 17.5572 15.9999 17.5572 15.9999C17.5572 15.9999 17.5572 15.9999 17.5572 15.9999C17.5572 15.9999 17.5572 15.9999 17.5572 15.9999C17.5572 15.9999 17.5572 15.9999 17.5572 15.9999C17.5572 15.9999 17.5572 15.9999 17.5572 15.9999C17.5572 15.9999 17.5572 15.9999 17.5572 15.9999C17.5572 15.9999 17.5572 15.9999 17.5572 15.9999C17.5572 15.9999 17.5572 15.9999 17.5572 15.9999C17.5572 15.9999 17.5572 15.9999 17.5572 15.9999C17.5572 15.9999 17.5572 15.9999 17.5572 15.9999C17.5572 15.9999 17.5572 15.9999 17.5572 15.9999C17.5572 15.9999 17.5572 15.9999 17.5572 15.9999C17.5572 15.9999 17.5572 15.9999 17.5572 15.9999C17.5572 15.9999 17.5572 15.9999 17.5572 15.9999C17.5572 15.9999 17.5572 15.9999 17.5572 15.9999C17.5572 15.9999 17.5572 15.9999 17.5572 15.9999C17.5572 15.9999 17.5572 15.9999 17.5572 15.9999C17.5572 15.9999 17.5572 15.9999 17.5572 15.9999C17.5572 15.9999 17.5572 15.9999 17.5572 15.9999C17.5572 15.9999 17.5572 15.9999 17.5572 15.9999C17.5572 15.9999 17.5572 15.9999 17.5572 15.9999C17.5572 15.9999 17.5572 15.9999 17.5572 15.9999C17.5572 15.9999 17.5572 15.9999 17.5572 15.9999C17.5572 15.9999 17.5572 15.9999 17.5572 15.9999C17.5572 15.9999 17.5571 15.9999 17.5571 15.9999C17.5571 15.9999 17.5571 15.9999 17.5571 15.9999C17.5571 15.9999 17.5571 15.9999 17.5571 15.9999C17.5571 15.9999 17.5571 15.9999 17.5571 15.9999C17.5571 15.9999 17.5571 15.9999 17.5571 15.9999C17.5571 15.9999 17.5571 15.9999 17.5571 15.9999C17.5571 15.9999 17.5571 15.9999 17.5571 15.9999C17.5571 15.9999 17.5571 15.9999 17.5571 15.9999C17.5571 15.9999 17.5571 15.9999 17.5571 15.9999C17.5571 15.9999 17.5571 15.9999 17.5571 15.9999C17.5571 15.9999 17.5571 15.9999 17.5571 15.9999C17.5571 15.9999 17.5571 15.9999 17.5571 15.9999C17.5571 15.9999 17.5571 15.9999 17.5571 15.9999C17.5571 15.9999 17.5571 15.9999 17.5571 15.9999C17.5571 15.9999 17.5571 15.9999 17.5571 15.9999C17.5571 15.9999 17.5571 15.9999 17.5571 15.9999C17.5571 15.9999 17.5571 15.9999 17.5571 15.9999C17.5571 15.9999 17.5571 15.9999 17.5571 15.9999C17.5571 15.9999 17.5571 15.9999 17.5571 15.9999C17.5571 15.9999 17.5571 15.9999 17.5571 15.9999C17.5571 15.9999 17.5571 15.9999 17.5571 15.9999C17.5571 15.9999 17.5571 15.9999 17.5571 15.9999C17.5571 15.9999 17.5571 15.9999 17.5571 15.9999C17.5571 15.9999 17.5571 15.9999 17.5571 15.9999C17.5571 15.9999 17.5571 15.9999 17.5571 15.9999C17.5571 15.9999 17.5571 15.9999 17.5571 15.9999C17.5571 15.9999 17.5571 15.9999 17.5571 15.9999C17.5571 15.9999 17.5571 15.9999 17.5571 15.9999C17.5571 15.9999 17.5571 15.9999 17.557 15.9999C17.557 15.9999 17.557 15.9999 17.557 15.9999C17.557 15.9999 17.557 15.9999 17.557 15.9999C17.557 15.9999 17.557 15.9999 17.557 15.9999C17.557 15.9999 17.557 15.9999 17.557 15.9999C17.557 15.9999 17.557 15.9999 17.557 15.9999C17.557 15.9999 17.557 15.9999 17.557 15.9999C17.557 15.9999 17.557 15.9999 17.557 15.9999C17.557 15.9999 17.557 15.9999 17.557 15.9999C17.557 15.9999 17.557 15.9999 17.557 15.9999C17.557 15.9999 17.557 15.9999 17.557 15.9999C17.557 15.9999 17.557 15.9999 17.557 15.9999C17.557 15.9999 17.557 15.9999 17.557 15.9999C17.557 15.9999 17.557 15.9999 17.557 15.9999C17.557 15.9999 17.557 15.9999 17.557 15.9999C17.557 15.9999 17.557 15.9999 17.557 15.9999C17.557 15.9999 17.557 15.9999 17.557 15.9999C17.557 15.9999 17.557 15.9999 17.557 15.9999C17.557 15.9999 17.557 15.9999 17.557 15.9999C17.557 15.9999 17.557 15.9999 17.557 15.9999C17.557 15.9999 17.557 15.9999 17.557 15.9999C17.557 15.9999 17.557 15.9999 17.557 15.9999C17.557 15.9999 17.557 15.9999 17.557 15.9999V23.9999ZM17.5589 23.9999C20.1649 23.9999 22.2767 21.8873 22.2767 19.282H14.2767C14.2767 17.4697 15.7459 15.9999 17.5589 15.9999V23.9999ZM22.2767 19.2725C22.2761 19.0221 22.2557 18.7675 22.2135 18.5118L14.3207 19.8174C14.291 19.6381 14.2772 19.4622 14.2768 19.2916L22.2767 19.2725ZM11.6101 3.8258C11.6101 4.71642 10.8919 5.43572 9.99984 5.43572V-2.56428C6.47238 -2.56428 3.61014 0.299396 3.61014 3.8258H11.6101ZM9.99984 5.43572C9.10819 5.43572 8.38974 4.71674 8.38974 3.8258H16.3897C16.3897 0.29908 13.5271 -2.56428 9.99984 -2.56428V5.43572ZM8.38974 3.8258V4.95772H16.3897V3.8258H8.38974ZM12.3897 0.957718H7.61014V8.95772H12.3897V0.957718ZM11.6101 4.95772V3.8258H3.61014V4.95772H11.6101ZM7.2104 18.922L8.30326 6.75117L0.335321 6.0357L-0.757546 18.2065L7.2104 18.922ZM4.31929 10.3934H6.17443V2.39343H4.31929V10.3934ZM2.17443 6.39343V7.67715H10.1744V6.39343H2.17443ZM2.17443 7.67715C2.17443 10.2824 4.28626 12.395 6.89229 12.395V4.39501C8.70523 4.39501 10.1744 5.86481 10.1744 7.67715H2.17443ZM6.89229 12.395C9.49832 12.395 11.6101 10.2824 11.6101 7.67715H3.61014C3.61014 5.86481 5.07934 4.39501 6.89229 4.39501V12.395ZM11.6101 7.67715V6.39343H3.61014V7.67715H11.6101ZM7.61014 10.3934H12.3897V2.39343H7.61014V10.3934ZM8.38974 6.39343V7.67715H16.3897V6.39343H8.38974ZM8.38974 7.67715C8.38974 10.2824 10.5016 12.395 13.1076 12.395V4.39501C14.9205 4.39501 16.3897 5.86481 16.3897 7.67715H8.38974ZM13.1076 12.395C15.7136 12.395 17.8255 10.2824 17.8255 7.67715H9.82545C9.82545 5.86481 11.2947 4.39501 13.1076 4.39501V12.395ZM17.8255 7.67715V6.39343H9.82545V7.67715H17.8255ZM13.8255 10.3934H15.6789V2.39343H13.8255V10.3934ZM11.6949 6.75117L12.7878 18.922L20.7557 18.2065L19.6628 6.0357L11.6949 6.75117ZM16.7717 14.5643H3.22643V22.5643H16.7717V14.5643Z" fill="#5B5656" mask="url(#path-1-inside-1)"/>
</svg>
